{
  "accessors": [
    {
      "bufferView": 2,
      "componentType": 5126,
      "count": 24632,
      "max": [
        72.05999755859375,
        79.55000305175781,
        131.19000244140625
      ],
      "min": [
        -78.86000061035156,
        -61.9900016784668,
        0.8799999952316284
      ],
      "type": "VEC3"
    },
    {
      "bufferView": 2,
      "byteOffset": 295584,
      "componentType": 5126,
      "count": 24632,
      "max": [
        0.9998910427093506,
        0.9999982118606567,
        0.9999358654022217
      ],
      "min": [
        -0.9998921155929565,
        -0.9999982118606567,
        -0.9999358654022217
      ],
      "type": "VEC3"
    },
    {
      "bufferView": 1,
      "componentType": 5126,
      "count": 24632,
      "max": [
        1.0717400312423706,
        1.0524799823760986
      ],
      "min": [
        -0.17510999739170074,
        -0.09292999655008316
      ],
      "type": "VEC2"
    },
    {
      "bufferView": 0,
      "componentType": 5125,
      "count": 110844,
      "type": "SCALAR"
    },
    {
      "bufferView": 2,
      "byteOffset": 591168,
      "componentType": 5126,
      "count": 9,
      "max": [
        51.61000061035156,
        43.75,
        5.139999866485596
      ],
      "min": [
        32.459999084472656,
        5.380000114440918,
        1.25
      ],
      "type": "VEC3"
    },
    {
      "bufferView": 1,
      "byteOffset": 197056,
      "componentType": 5126,
      "count": 9,
      "max": [
        0.0,
        0.0
      ],
      "min": [
        0.0,
        0.0
      ],
      "type": "VEC2"
    },
    {
      "bufferView": 0,
      "byteOffset": 443376,
      "componentType": 5125,
      "count": 18,
      "type": "SCALAR"
    },
    {
      "bufferView": 2,
      "byteOffset": 591276,
      "componentType": 5126,
      "count": 2267,
      "max": [
        70.36000061035156,
        77.4000015258789,
        119.16999816894531
      ],
      "min": [
        -79.54000091552734,
        -63.91999816894531,
        -0.0
      ],
      "type": "VEC3"
    },
    {
      "bufferView": 2,
      "byteOffset": 618480,
      "componentType": 5126,
      "count": 2267,
      "max": [
        0.9999138116836548,
        0.9985814094543457,
        0.999953031539917
      ],
      "min": [
        -0.9998051524162292,
        -0.9997232556343079,
        -0.9992001056671143
      ],
      "type": "VEC3"
    },
    {
      "bufferView": 1,
      "byteOffset": 197128,
      "componentType": 5126,
      "count": 2267,
      "max": [
        29.89756965637207,
        36.150848388671875
      ],
      "min": [
        -32.72785949707031,
        -37.14720153808594
      ],
      "type": "VEC2"
    },
    {
      "bufferView": 0,
      "byteOffset": 443448,
      "componentType": 5125,
      "count": 10032,
      "type": "SCALAR"
    }
  ],
  "asset": {
    "extras": {
      "author": "1-3D.com (https://sketchfab.com/1-3D.com)",
      "license": "CC-BY-SA-4.0 (http://creativecommons.org/licenses/by-sa/4.0/)",
      "source": "https://sketchfab.com/3d-models/bush-12f4432ac5a444a691a338a86afbf8f3",
      "title": "Bush"
    },
    "generator": "Sketchfab-12.78.0",
    "version": "2.0"
  },
  "bufferViews": [
    {
      "buffer": 0,
      "byteLength": 483576,
      "name": "floatBufferViews",
      "target": 34963
    },
    {
      "buffer": 0,
      "byteLength": 215264,
      "byteOffset": 483576,
      "byteStride": 8,
      "name": "floatBufferViews",
      "target": 34962
    },
    {
      "buffer": 0,
      "byteLength": 645684,
      "byteOffset": 698840,
      "byteStride": 12,
      "name": "floatBufferViews",
      "target": 34962
    }
  ],
  "buffers": [
    {
      "byteLength": 1344524,
      "uri": "scene.bin"
    }
  ],
  "images": [
    {
      "uri": "textures/leaves_baseColor.png"
    },
    {
      "uri": "textures/trunk_baseColor.jpeg"
    }
  ],
  "materials": [
    {
      "alphaMode": "BLEND",
      "doubleSided": true,
      "name": "leaves",
      "pbrMetallicRoughness": {
        "baseColorTexture": {
          "index": 0
        },
        "metallicFactor": 0.0,
        "roughnessFactor": 0.9388432611537785
      }
    },
    {
      "doubleSided": true,
      "name": "trunk",
      "pbrMetallicRoughness": {
        "baseColorTexture": {
          "index": 1
        },
        "metallicFactor": 0.0,
        "roughnessFactor": 0.9868779528508256
      }
    }
  ],
  "meshes": [
    {
      "name": "Object_0",
      "primitives": [
        {
          "attributes": {
            "NORMAL": 1,
            "POSITION": 0,
            "TEXCOORD_0": 2
          },
          "indices": 3,
          "material": 0,
          "mode": 4
        }
      ]
    },
    {
      "name": "Object_1",
      "primitives": [
        {
          "attributes": {
            "POSITION": 4,
            "TEXCOORD_0": 5
          },
          "indices": 6,
          "material": 1,
          "mode": 1
        }
      ]
    },
    {
      "name": "Object_2",
      "primitives": [
        {
          "attributes": {
            "NORMAL": 8,
            "POSITION": 7,
            "TEXCOORD_0": 9
          },
          "indices": 10,
          "material": 1,
          "mode": 4
        }
      ]
    }
  ],
  "nodes": [
    {
      "children": [
        1
      ],
      "matrix": [
        1.0,
        0.0,
        0.0,
        0.0,
        0.0,
        2.220446049250313e-16,
        -1.0,
        0.0,
        0.0,
        1.0,
        2.220446049250313e-16,
        0.0,
        0.0,
        0.0,
        0.0,
        1.0
      ],
      "name": "Sketchfab_model"
    },
    {
      "children": [
        2,
        3,
        4
      ],
      "name": "bush.obj.cleaner.materialmerger.gles"
    },
    {
      "mesh": 0,
      "name": "Object_2"
    },
    {
      "mesh": 1,
      "name": "Object_3"
    },
    {
      "mesh": 2,
      "name": "Object_4"
    }
  ],
  "samplers": [
    {
      "magFilter": 9729,
      "minFilter": 9987,
      "wrapS": 10497,
      "wrapT": 10497
    }
  ],
  "scene": 0,
  "scenes": [
    {
      "name": "Sketchfab_Scene",
      "nodes": [
        0
      ]
    }
  ],
  "textures": [
    {
      "sampler": 0,
      "source": 0
    },
    {
      "sampler": 0,
      "source": 1
    }
  ]
}
