{
  "accessors": [
    {
      "bufferView": 2,
      "componentType": 5126,
      "count": 613,
      "max": [
        8861.5712890625,
        5213.466796875,
        4898.71875
      ],
      "min": [
        5661.931640625,
        2684.169921875,
        3397.6875
      ],
      "type": "VEC3"
    },
    {
      "bufferView": 2,
      "byteOffset": 7356,
      "componentType": 5126,
      "count": 613,
      "max": [
        0.9899088144302368,
        0.9999877214431763,
        0.7524454593658447
      ],
      "min": [
        -0.9978872537612915,
        -0.9931311011314392,
        -0.9922327995300293
      ],
      "type": "VEC3"
    },
    {
      "bufferView": 1,
      "componentType": 5126,
      "count": 613,
      "max": [
        0.9914000034332275,
        -0.014100000262260437
      ],
      "min": [
        0.006500000134110451,
        -0.986299991607666
      ],
      "type": "VEC2"
    },
    {
      "bufferView": 0,
      "componentType": 5125,
      "count": 3180,
      "type": "SCALAR"
    },
    {
      "bufferView": 2,
      "byteOffset": 14712,
      "componentType": 5126,
      "count": 174,
      "max": [
        8858.9638671875,
        5203.099609375,
        4963.61328125
      ],
      "min": [
        5665.26611328125,
        2754.005859375,
        4616.9765625
      ],
      "type": "VEC3"
    },
    {
      "bufferView": 2,
      "byteOffset": 16800,
      "componentType": 5126,
      "count": 174,
      "max": [
        0.6004242897033691,
        0.9176082611083984,
        0.9999676942825317
      ],
      "min": [
        -0.7974837422370911,
        -0.5751035213470459,
        0.16850152611732483
      ],
      "type": "VEC3"
    },
    {
      "bufferView": 1,
      "byteOffset": 4904,
      "componentType": 5126,
      "count": 174,
      "max": [
        0.7882999777793884,
        -0.46889999508857727
      ],
      "min": [
        0.019200000911951065,
        -0.9851999878883362
      ],
      "type": "VEC2"
    },
    {
      "bufferView": 0,
      "byteOffset": 12720,
      "componentType": 5125,
      "count": 864,
      "type": "SCALAR"
    }
  ],
  "asset": {
    "extras": {
      "author": "doublesob (https://sketchfab.com/ssorpeg)",
      "license": "CC-BY-NC-4.0 (http://creativecommons.org/licenses/by-nc/4.0/)",
      "source": "https://sketchfab.com/3d-models/rock-platform-low-poly-26203ae6b0a8442ca0e2775cf0efd6a6",
      "title": "Rock platform low poly"
    },
    "generator": "Sketchfab-15.33.0",
    "version": "2.0"
  },
  "bufferViews": [
    {
      "buffer": 0,
      "byteLength": 16176,
      "name": "floatBufferViews",
      "target": 34963
    },
    {
      "buffer": 0,
      "byteLength": 6296,
      "byteOffset": 16176,
      "byteStride": 8,
      "name": "floatBufferViews",
      "target": 34962
    },
    {
      "buffer": 0,
      "byteLength": 18888,
      "byteOffset": 22472,
      "byteStride": 12,
      "name": "floatBufferViews",
      "target": 34962
    }
  ],
  "buffers": [
    {
      "byteLength": 41360,
      "uri": "scene.bin"
    }
  ],
  "extensionsUsed": [
    "KHR_materials_specular"
  ],
  "images": [
    {
      "uri": "textures/Tex_0040_0_dds_baseColor.png"
    },
    {
      "uri": "textures/Tex_0043_0_dds_baseColor.png"
    }
  ],
  "materials": [
    {
      "doubleSided": true,
      "emissiveTexture": {
        "index": 0
      },
      "extensions": {
        "KHR_materials_specular": {
          "specularColorFactor": [
            1.0,
            1.0,
            1.0
          ],
          "specularFactor": 0.0
        }
      },
      "name": "Tex_0040_0_dds",
      "pbrMetallicRoughness": {
        "baseColorTexture": {
          "index": 0
        },
        "metallicFactor": 0.0
      }
    },
    {
      "doubleSided": true,
      "emissiveTexture": {
        "index": 1
      },
      "extensions": {
        "KHR_materials_specular": {
          "specularColorFactor": [
            1.0,
            1.0,
            1.0
          ],
          "specularFactor": 0.0
        }
      },
      "name": "Tex_0043_0_dds",
      "pbrMetallicRoughness": {
        "baseColorTexture": {
          "index": 1
        },
        "metallicFactor": 0.0
      }
    }
  ],
  "meshes": [
    {
      "name": "Object_0",
      "primitives": [
        {
          "attributes": {
            "NORMAL": 1,
            "POSITION": 0,
            "TEXCOORD_0": 2
          },
          "indices": 3,
          "material": 0,
          "mode": 4
        }
      ]
    },
    {
      "name": "Object_1",
      "primitives": [
        {
          "attributes": {
            "NORMAL": 5,
            "POSITION": 4,
            "TEXCOORD_0": 6
          },
          "indices": 7,
          "material": 1,
          "mode": 4
        }
      ]
    }
  ],
  "nodes": [
    {
      "children": [
        1
      ],
      "matrix": [
        1.0,
        0.0,
        0.0,
        0.0,
        0.0,
        2.220446049250313e-16,
        -1.0,
        0.0,
        0.0,
        1.0,
        2.220446049250313e-16,
        0.0,
        0.0,
        0.0,
        0.0,
        1.0
      ],
      "name": "Sketchfab_model"
    },
    {
      "children": [
        2,
        3
      ],
      "name": "Rock03.obj.cleaner.materialmerger.gles"
    },
    {
      "mesh": 0,
      "name": "Object_2"
    },
    {
      "mesh": 1,
      "name": "Object_3"
    }
  ],
  "samplers": [
    {
      "magFilter": 9729,
      "minFilter": 9987,
      "wrapS": 10497,
      "wrapT": 10497
    }
  ],
  "scene": 0,
  "scenes": [
    {
      "name": "Sketchfab_Scene",
      "nodes": [
        0
      ]
    }
  ],
  "textures": [
    {
      "sampler": 0,
      "source": 0
    },
    {
      "sampler": 0,
      "source": 1
    }
  ]
}
